<!DOCTYPE svg PUBLIC "-//W3C//DTD SVG 1.1//EN" "http://www.w3.org/Graphics/SVG/1.1/DTD/svg11.dtd">
<!-- Uploaded to: SVG Repo, www.svgrepo.com, Transformed by: SVG Repo Mixer Tools -->
<svg width="800px" height="800px" viewBox="-12.6 -12.6 151.20 151.20" version="1.1" xmlns="http://www.w3.org/2000/svg" xmlns:xlink="http://www.w3.org/1999/xlink" fill="#000000" transform="matrix(1, 0, 0, 1, 0, 0)">
<g id="SVGRepo_bgCarrier" stroke-width="0"/>
<g id="SVGRepo_tracerCarrier" stroke-linecap="round" stroke-linejoin="round" stroke="#d65c5c" stroke-width="0.252"/>
<g id="SVGRepo_iconCarrier"> <title/> <desc/> <defs/> <g fill="none" fill-rule="evenodd" id="Page-1" stroke-width="0.00126"> <g fill-rule="nonzero" id="padnote"> <path d="M76,0 L26.9,0 C24.6,0 22.8,1.8 22.8,4.1 L22.8,9.8 L4.7,9.8 C2.4,9.8 0.6,11.6 0.6,13.9 L0.6,121.9 C0.6,124.2 2.4,126 4.7,126 L96.3,126 C98.6,126 100.4,124.2 100.4,121.9 L100.4,13.9 C100.4,11.6 98.6,9.8 96.3,9.8 L80.1,9.8 L80.1,4.1 C80.1,1.8 78.3,0 76,0 Z M31,13.9 L31,8.2 L71.9,8.2 L71.9,13.9 L71.9,21.1 L31,21.1 L31,13.9 Z M92.2,18 L92.2,117.8 L8.8,117.8 L8.8,18 L22.8,18 L22.8,25.2 C22.8,27.5 24.6,29.3 26.9,29.3 L76,29.3 C78.3,29.3 80.1,27.5 80.1,25.2 L80.1,18 L92.2,18 Z" fill="#4A4A4A" id="Shape"/> <path d="M81,71 L21.9,71 C19.6,71 17.8,72.8 17.8,75.1 C17.8,77.4 19.6,79.2 21.9,79.2 L81,79.2 C83.3,79.2 85.1,77.4 85.1,75.1 C85.1,72.8 83.3,71 81,71 Z" fill="#0079BF" id="Shape"/> <path d="M51.5,90.8 L21.9,90.8 C19.6,90.8 17.8,92.6 17.8,94.9 C17.8,97.2 19.6,99 21.9,99 L51.4,99 C53.7,99 55.5,97.2 55.5,94.9 C55.5,92.6 53.7,90.8 51.5,90.8 Z" fill="#0079BF" id="Shape"/> <path d="M17.8,55.2 C17.8,57.5 19.6,59.3 21.9,59.3 L81,59.3 C83.3,59.3 85.1,57.5 85.1,55.2 C85.1,52.9 83.3,51.1 81,51.1 L21.9,51.1 C19.6,51.1 17.8,53 17.8,55.2 Z" fill="#0079BF" id="Shape"/> </g> </g> </g>
</svg>